<svg xmlns="http://www.w3.org/2000/svg" xmlns:xlink="http://www.w3.org/1999/xlink" width="956.576" height="583.274" viewBox="0 0 956.576 583.274">
  <defs>
    <linearGradient id="linear-gradient" x1="0.5" y1="1" x2="0.5" gradientUnits="objectBoundingBox">
      <stop offset="0" stop-color="gray" stop-opacity="0.251"/>
      <stop offset="0.54" stop-color="gray" stop-opacity="0.122"/>
      <stop offset="1" stop-color="gray" stop-opacity="0.102"/>
    </linearGradient>
  </defs>
  <g id="Draw" transform="translate(114.577 21.002)">
    <path id="BG" d="M585.271,193.7c-52.488-1.825-102.478-18.767-150.221-37.306s-95.017-39.082-146.248-48.9c-32.951-6.318-70.63-7.21-97.182,10.454-25.546,17.031-33.8,46.349-38.247,73.574-3.333,20.494-5.3,42.05,3.852,61.23,6.35,13.317,17.631,24.508,25.433,37.265,27.136,44.378,7.956,99.1-21.459,142.436-13.787,20.324-29.8,39.739-40.445,61.36s-15.571,46.43-6.261,68.505c9.237,21.9,31.24,38.312,55.067,49.868,48.409,23.47,105.43,30.193,161.081,34,123.126,8.426,246.917,4.777,370.367,1.127,45.692-1.354,91.578-2.725,136.524-9.789,24.963-3.925,50.736-10.154,68.854-25.141,23-19.083,28.7-51.4,13.292-75.326-25.855-40.136-97.32-50.112-115.413-93.184-9.951-23.706.268-50.12,14.72-72.106,31.013-47.176,82.99-88.553,85.731-142.476,1.881-37.03-23.105-74.117-61.741-91.643-40.5-18.369-96.655-16.058-126.516,14.347C685.672,183.257,631.611,195.3,585.271,193.7Z" transform="translate(-86.311 -103.35)" fill="#55a3ff" opacity="0.1"/>
    <g id="Feather" transform="translate(0.003 235.734)" opacity="0.1">
      <path id="Path_316" data-name="Path 316" d="M150.92,401.068s-60.638-25.5-68.586,20.51c0,0-4.144,7.169,1.622,13.09,0,0,1.241-3.179,7.1.105a30.146,30.146,0,0,0,6.618,2.693,14.89,14.89,0,0,0,9.424-.5h0s19.942-1.079,36.714-27.168c0,0,7.194-4.444,7.55-6.115l-12.019.811s.925,8.8-4.055,14.079c0,0,4.412-13.657,2.3-14.038-.43-.081-6.35.7-6.35.7s1.533,15.3-6.488,23.219c0,0,7.445-15.563,4.209-22.943l-8.872,1.711s2.433,16.1-6.342,25.457c0,0,7.218-16.544,4.428-24.946l-8.491,2.855s2.044,15.741-5.3,23.519c0,0,6.407-19.959,3.39-22.708,0,0-7.64,3.1-9.27,4.866,0,0,1.208,11.354-3.455,15.45,0,0,2.863-13.787,1.444-14.355,0,0-8.872,6.683-11.581,12.449,0,0,3.374-8.807,10.47-13.787,0,0-5.961-1.006-10.543,1.484,0,0,3.066-5.847,12.692-3.074,0,0,7.129-4.939,8.556-4.866,0,0-9.108-4.055-15.685-3.552,0,0,7.056-4.055,17.907,2.717l8.475-3.057s-11.76-6.026-17.647-6c0,0,7.834-3.033,19.845,5.4l8.678-1.768s-9.732-5.961-16.293-7.348c0,0,7.867-1.249,18.8,6.934l5.928-.495s-7.177-4.233-9.351-5.263-2.076-1.695-2.076-1.695a28.3,28.3,0,0,1,13.9,6.634S150.872,401.822,150.92,401.068Z" transform="translate(-80.893 -394.021)" fill="#55a3ff"/>
    </g>
    <g id="Phone-Draw" transform="translate(-600.997 -21.002)">
      <path id="Path_339" data-name="Path 339" d="M907.2,280.936V340.5a2.082,2.082,0,0,1-2.077,2.077h-1.478V652.845a32.375,32.375,0,0,1-32.372,32.374H677.4a32.367,32.367,0,0,1-32.365-32.371V353.455h-1.07a1.467,1.467,0,0,1-1.469-1.46V318.1a1.469,1.469,0,0,1,1.469-1.469h1.07V303.86h-1.079a1.538,1.538,0,0,1-1.532-1.542V268.884a1.536,1.536,0,0,1,1.532-1.533h1.079V249.922h-1.1a1.358,1.358,0,0,1-1.36-1.36V230.317a1.366,1.366,0,0,1,1.36-1.369h1.1V192a32.366,32.366,0,0,1,32.364-32.365H871.267A32.374,32.374,0,0,1,903.641,192v86.856h1.478a2.082,2.082,0,0,1,2.077,2.077Z" transform="translate(-156 -159.638)"/>
      <rect id="Rectangle_75" data-name="Rectangle 75" width="36.113" height="7.333" rx="2.542" transform="translate(593.864 16.601)" fill="#e6e8ec"/>
      <circle id="Ellipse_113" data-name="Ellipse 113" cx="4.159" cy="4.159" r="4.159" transform="translate(635.438 16.108)" fill="#e6e8ec"/>
      <path id="Path_340" data-name="Path 340" d="M890.1,200.278V657.4a20.54,20.54,0,0,1-20.54,20.531H683.974a20.5,20.5,0,0,1-20.54-20.531V200.278a20.539,20.539,0,0,1,20.541-20.54h27.775V183.3a16.912,16.912,0,0,0,16.912,16.912h94.383A16.912,16.912,0,0,0,839.958,183.3v-3.564h29.6A20.533,20.533,0,0,1,890.1,200.278Z" transform="translate(-157.958 -161.511)" fill="#fff"/>
      <rect id="Rectangle_76" data-name="Rectangle 76" width="188.62" height="24.484" transform="translate(524.876 319.167)" fill="#e6e6e6"/>
      <rect id="Rectangle_77" data-name="Rectangle 77" width="188.62" height="24.484" transform="translate(524.876 362.694)" fill="#e6e6e6"/>
      <rect id="Rectangle_78" data-name="Rectangle 78" width="188.62" height="24.484" transform="translate(524.876 406.222)" fill="#e6e6e6"/>
      <circle id="Ellipse_114" data-name="Ellipse 114" cx="18.137" cy="18.137" r="18.137" transform="translate(674.503 64.348)" fill="#55a3ff"/>
      <rect id="Rectangle_79" data-name="Rectangle 79" width="188.62" height="125.142" transform="translate(524.497 143.242)" fill="#e6e6e6"/>
      <path id="Path_341" data-name="Path 341" d="M767.065,391c5.507,20.358,24.371,32.967,24.371,32.967s9.935-20.4,4.427-40.757-24.371-32.967-24.371-32.967S761.557,370.642,767.065,391Z" transform="translate(-167.458 -177.397)" fill="#3f3d56"/>
      <path id="Path_342" data-name="Path 342" d="M772.279,388.725c15.112,14.711,16.958,37.325,16.958,37.325s-22.656-1.237-37.768-15.948-16.958-37.325-16.958-37.325S757.167,374.014,772.279,388.725Z" transform="translate(-164.58 -179.497)" fill="#55a3ff"/>
      <path id="Path_343" data-name="Path 343" d="M819.354,391c-5.507,20.358-24.371,32.967-24.371,32.967s-9.935-20.4-4.427-40.757,24.371-32.967,24.371-32.967S824.862,370.642,819.354,391Z" transform="translate(-169.647 -177.397)" fill="#3f3d56"/>
      <path id="Path_344" data-name="Path 344" d="M811.818,388.725c-15.112,14.711-16.958,37.325-16.958,37.325s22.656-1.237,37.768-15.948,16.958-37.325,16.958-37.325S826.93,374.014,811.818,388.725Z" transform="translate(-170.203 -179.497)" fill="#55a3ff"/>
    </g>
    <g id="Peson">
      <path id="Path_294" data-name="Path 294" d="M450.181,666.013a30.778,30.778,0,0,0-3.244-8.459,29.625,29.625,0,0,0-5.312-5.815c-5.88-5.336-13.1-10.754-20.891-9.408a27.889,27.889,0,0,0-6.926,2.53c-1.135.527-2.279,1.054-3.447,1.5a17.169,17.169,0,0,1-10.4.908c-1.784-.478-3.447-1.338-5.207-1.873a16.5,16.5,0,0,0-2.555-.551,43.513,43.513,0,0,0,4.939-2.6c8.743-5.353,15.717-15.028,14.744-25.376a41.9,41.9,0,0,0-2.709-10.1l-3.114-8.613c-1.346-3.731-2.741-7.534-5.2-10.632-2.733-3.455-6.626-5.8-10.648-7.542-8.637-3.755-18.077-5.077-27.4-6.358l-.649-.089V472.865a6.488,6.488,0,0,0-6.488-6.488H343.437q-.811-4.963-1.622-9.91c-1.541-9.416-3.139-19-7.477-27.477-2.839-5.547-7.356-10.843-13.446-11.93a13.04,13.04,0,0,1-3.5-.811c-1.784-.876-2.757-2.822-4.128-4.258-3.536-3.706-9.286-3.763-14.022-5.677-4.185-1.663-7.607-4.793-11.419-7.2s-8.548-4.12-12.765-2.555a8.551,8.551,0,0,1-.089.916l-2.709-1.249c-2.92-1.354-5.9-2.741-8.24-4.963-3.009-2.839-4.615-6.6-5.864-10.6-.13-.414-.251-.811-.381-1.257a37.655,37.655,0,0,0,10.089-19.261l.657,2.133a14.163,14.163,0,0,0,.519,1.411,5.563,5.563,0,0,0,1.622,2.3,2.88,2.88,0,0,0,.681.4,2.837,2.837,0,0,0,.7.178,2.6,2.6,0,0,0,1.006-.073,3.836,3.836,0,0,0,2.433-2.255,4.864,4.864,0,0,0,.284-.989,5.112,5.112,0,0,0,.057-.616v-.843a1.582,1.582,0,0,0-.041-.405v-.211a2.361,2.361,0,0,0-.081-.478c-.032-.154,0-.089,0-.13-.041-.2-.089-.414-.13-.616v-.154c0-.049-.073-.333-.114-.5s-.057-.219-.081-.333V358.9h0c-.081-.324-.154-.641-.227-.965a27.882,27.882,0,0,1-.446-8.564,91.7,91.7,0,0,1,2.319-12.449l.17-.738c.065-.284.13-.568.187-.86.13-.584.26-1.168.381-1.76h0l.292-1.492.219-1.33v-.17a38.45,38.45,0,0,0,.284-9.107h0a19.167,19.167,0,0,0-4.566-11.451c-2.036-2.263-4.72-3.933-6.61-6.31-1.768-2.222-2.766-4.963-4.6-7.145-5.061-6.042-18.053-10.7-26.025-11.508-9.132-.925-23.884,1.411-31.248,6.8-2.725,1.987-4.59,4.866-6.488,7.591-3.487,5.069-7.445,10.129-13.033,12.976-2.109,1.071-4.525,1.882-5.928,3.747a10.129,10.129,0,0,0-1.581,4.2,83.3,83.3,0,0,0-1.671,16.042h0v2.027a14.785,14.785,0,0,0,1.265,5.864c.13.276.276.543.43.811l.1.17a32.258,32.258,0,0,1,2.6,4.42,5.856,5.856,0,0,1,.4,1.346,9.927,9.927,0,0,1-.227,3.552h0a3.123,3.123,0,0,1-.105.535l-.073.349a.684.684,0,0,1-.065.357c-.065.349-.122.7-.17,1.038h0a7.3,7.3,0,0,0,.178,2.806,3.69,3.69,0,0,0,1.8,2.433,5.271,5.271,0,0,0,1.46.454c.511.089,1.03.146,1.533.26a7.566,7.566,0,0,1,1.857.689,7.475,7.475,0,0,1,1.565,1.006,8.918,8.918,0,0,1,.673.681,11.353,11.353,0,0,1,1.152,1.573q.26.43.487.876a20.008,20.008,0,0,1,1.387,3.666c.211.754.389,1.517.543,2.279.073.341.138.681.195,1.014s.114.673.162,1.006h0a2.361,2.361,0,0,0,.649-.13c1.192-.43,1.857-1.817,2.23-3.163.065-.227.122-.446.17-.665.187-.811.381-1.7.568-2.555a37.606,37.606,0,0,0,14.8,16.3c.227.673.446,1.338.641,2.019,1.062,3.674,1.573,7.518-.268,10.73a11.353,11.353,0,0,1-5.985,4.655,3.958,3.958,0,0,0-1.338-1.135c-2.133-1.071-4.7.227-6.488,1.825-3.244,2.936-5.888,7.145-10.154,8.11-1.541.357-3.244.284-4.525,1.225a10.543,10.543,0,0,0-2.1,2.757,9.667,9.667,0,0,1-8.3,4.136c-1.484-.073-3.244-.414-4.258.673-.754.811-.811,2.092-1.622,2.863-1.087,1.071-2.871.551-4.388.487-2.887-.122-5.572,1.744-7.218,4.136s-2.433,5.255-3.244,8.11v.049a5.8,5.8,0,0,0-.592.495,8.556,8.556,0,0,0-1.792,2.9A138.574,138.574,0,0,0,139.3,486.636a4.866,4.866,0,0,1-.519,2.287,11.25,11.25,0,0,1-1.192,1.3,4.55,4.55,0,0,0,.754,6.488,5.108,5.108,0,0,1,.868-1.152c-.089.373-.17.738-.227,1.071a28.783,28.783,0,0,0-.089,7.137q1.152,16.9,2.328,33.778c.219,3.187.438,6.366.73,9.545q.852,9.229,2.433,18.385a7.933,7.933,0,0,0,.178.811c-6.61,2.1-12.489,5.9-14.963,12.23-.86,2.19-1.249,4.574-2.3,6.674-1.16,2.3-3.066,4.144-4.331,6.4-2.182,3.877-2.279,8.629-1.484,12.976,1.533,8.475,6.115,16.05,12.165,22.213h-.811a12.685,12.685,0,0,0-5.539,1.987c-12.8,7.477-20.113,23.519-17.445,38.166a16.374,16.374,0,0,0,3.358,7.948,12.579,12.579,0,0,0,5.9,3.617,20.515,20.515,0,0,0,4.355.811c9.975.811,19.634-3.812,29.634-4.2a79.477,79.477,0,0,1,9.919.462q7.226.6,14.476.762c7.859.186,12.279-1.906,17.291-7.778a21.169,21.169,0,0,0,3.057-4.817c4.266-.243,8.978-.616,12.384-.892l.049.47c.187,1.622.47,3.487,1.768,4.509a6.171,6.171,0,0,0,2.433,1c8.191,2.011,16.48,4.055,24.914,4.055a105.193,105.193,0,0,0,11.832-.908l14.817-1.711a73.81,73.81,0,0,1,12.733,2.774c4.282,1.452,8.28,3.609,12.465,5.32,9.732,3.941,20.194,5.353,30.558,6.731,1.768.235,3.8.4,5.1-.811,1.687-1.622,1.127-4.331.649-6.6-.195-.933-.341-1.865-.454-2.806a142.131,142.131,0,0,1,20.47,7.1l1.16.511c.341,1.768,1.971,3.179,3.536,5.085a12.97,12.97,0,0,0,1.792,2.222,5.977,5.977,0,0,0,2.571.924,119.877,119.877,0,0,0,33.194,1.5,33.961,33.961,0,0,1,6.845-.235,29.661,29.661,0,0,1,4.947,1.111l9.383,2.693c6.918,1.979,14,3.982,21.175,3.536a27.092,27.092,0,0,0,4.323-.625c5.677-1.314,10.965-4.485,13.69-9.586C454.033,682.168,452.257,673.636,450.181,666.013Z" transform="translate(-86.26 -137.655)" fill="url(#linear-gradient)"/>
      <path id="Path_295" data-name="Path 295" d="M205.362,748.23c-1.711-3.893-3.333-8.37-1.622-12.262a10.422,10.422,0,0,1,5.393-5.069,25.953,25.953,0,0,1,7.3-1.8,101.862,101.862,0,0,1,23.73-.324c.576,4.558-.641,9.181-1.687,13.584-.949,4.055-1.492,4.655-5.677,4.866C230.09,747.37,206,749.665,205.362,748.23Z" transform="translate(-103.971 -221.453)" fill="#fbbebe"/>
      <ellipse id="Shadow_Legs_2" data-name="Shadow Legs 2" cx="115.973" cy="32.44" rx="115.973" ry="32.44" transform="translate(57.638 435.636)" fill="#464353"/>
      <ellipse id="Shadow_Legs" data-name="Shadow Legs" cx="115.973" cy="32.44" rx="115.973" ry="32.44" transform="translate(57.638 435.636)" opacity="0.1"/>
      <path id="Path_296" data-name="Path 296" d="M302.241,453.956a36.081,36.081,0,0,1-18.6,16.9,46.7,46.7,0,0,1-14.768,2.806,42.068,42.068,0,0,1-16.3-1.987c-6.942-2.514-12.708-7.656-17.031-13.649s-7.3-12.838-9.886-19.74c-1.362-3.593-2.66-7.421-2.019-11.216,4.177-.949,8.751-2.344,10.908-6.05,1.841-3.179,1.33-6.991.268-10.624-.3-1.03-.649-2.052-1-3.033-.811-2.352-3.609-6.821-1.622-8.832,1.241-1.273,6.439-1.922,8.232-2.749,5.523-2.547,10.616-6.228,16.682-7.437,5.247-1.046,10.665-.065,15.9,1.022a5.231,5.231,0,0,1,1.963.706,4.72,4.72,0,0,1,1.46,2.19c1.492,3.633,2.368,7.648,3.568,11.435,1.249,3.966,2.855,7.688,5.864,10.5,2.344,2.2,5.328,3.577,8.248,4.915l7.185,3.293a9.448,9.448,0,0,1,3.4,2.2,8.6,8.6,0,0,1,1.622,4.412,41.215,41.215,0,0,1-4.071,24.938Z" transform="translate(-107.836 -157.13)" fill="#fbbebe"/>
      <path id="Path_297" data-name="Path 297" d="M281.835,403.7a37.306,37.306,0,0,1-45.148,6.7c-.3-1.03-.649-2.052-1-3.033-.811-2.352-3.609-6.821-1.622-8.832,1.241-1.273,6.439-1.922,8.232-2.749,5.523-2.547,10.616-6.228,16.682-7.437,5.247-1.046,10.665-.065,15.9,1.022a5.231,5.231,0,0,1,1.963.706,4.72,4.72,0,0,1,1.46,2.19C279.759,395.9,280.635,399.911,281.835,403.7Z" transform="translate(-109.708 -157.13)" opacity="0.1"/>
      <circle id="Ellipse_99" data-name="Ellipse 99" cx="37.306" cy="37.306" r="37.306" transform="translate(107.92 181.793)" fill="#fbbebe"/>
      <path id="Path_298" data-name="Path 298" d="M355.4,504.514l-3.066-18.572c-1.549-9.318-3.147-18.815-7.477-27.209-2.847-5.5-7.364-10.738-13.454-11.824a13.018,13.018,0,0,1-3.5-.811c-1.784-.86-2.757-2.79-4.128-4.217-3.536-3.666-9.294-3.722-14.03-5.588-4.185-1.622-7.607-4.744-11.419-7.129s-8.556-4.055-12.773-2.53c-.681,7.258-1.4,14.679-4.485,21.289a31.856,31.856,0,0,1-48.06,11.97c-7.226-5.442-11.857-13.836-14.014-22.619-.527-2.141-1.127-4.6-3.1-5.58-2.133-1.07-4.7.227-6.488,1.8-3.244,2.911-5.9,7.08-10.162,8.061-1.541.357-3.244.284-4.525,1.216a10.3,10.3,0,0,0-2.109,2.733,9.732,9.732,0,0,1-8.3,4.1c-1.484-.073-3.244-.414-4.258.665-.754.811-.811,2.076-1.622,2.83-1.095,1.062-2.871.543-4.4.487-2.887-.122-5.572,1.727-7.226,4.055s-2.433,5.207-3.244,8c8.864,19.74,16.974,39.5,25.838,59.244a5.053,5.053,0,0,1,.641,2.433,5.929,5.929,0,0,1-1.1,2.433c-4.347,6.983-4.209,15.766-3.731,23.973s1.062,16.877-2.6,24.233c-1,2.019-2.3,3.868-3.244,5.888-2.222,4.574-3.025,19.2-1.727,24.119H360.992c-3.5-9.61-2.165-28.9-1.435-39.1.511-7.137-.811-14.266-1.379-21.4C356.937,532.891,357.813,519.063,355.4,504.514Z" transform="translate(-96.516 -164.34)" fill="#55a3ff"/>
      <path id="Path_299" data-name="Path 299" d="M146.187,546.428a28.709,28.709,0,0,0-.1,7.08l2.328,33.47c.219,3.155.438,6.3.73,9.448.56,6.107,1.395,12.165,2.433,18.215a3.244,3.244,0,0,0,3.325,3.155c10.259,2.173,20.859,2.084,31.329,1.492,15.977-.892,31.929-2.928,47.93-2.579,4.12.089,8.921,0,11.419-3.244s1.046-8.491-2.214-11.111-7.688-3.244-11.873-3.244c-5.539-.057-11.078.73-16.6.406a82.243,82.243,0,0,1-14.939-2.749l-13.787-3.43c.527-4.177,2.117-8.11,3.625-12.076,2.709-7.031,5.239-14.3,5.288-21.832s-2.79-15.458-8.962-19.772c-5.077-3.544-11.614-4.2-17.8-4.055-4.5.13-12.279-.949-16.39.811C148.677,537.839,146.8,543.241,146.187,546.428Z" transform="translate(-93.179 -185.006)" fill="#fbbebe"/>
      <path id="Right_Leg_2" data-name="Right Leg 2" d="M377.608,643.2c2.7-1.03,5.677-.657,8.572-.268,9.318,1.273,18.775,2.579,27.412,6.3a26.916,26.916,0,0,1,10.657,7.469c2.433,3.074,3.852,6.837,5.2,10.543l3.114,8.532a41.074,41.074,0,0,1,2.717,10c.973,10.211-6.01,19.837-14.793,25.141s-19.123,7.194-29.2,9.172-20.186,4.169-30.218,6.488a121.638,121.638,0,0,1-14.217,2.8c-10.738,1.217-21.962-.576-32.164,2.976-4.055,1.419-8.037,3.528-12.246,4.509a76.175,76.175,0,0,1-8.467,1.289l-19.31,2.206a105.35,105.35,0,0,1-11.841.908c-8.434,0-16.731-2-24.922-3.99a6.3,6.3,0,0,1-2.433-.981c-1.3-1.022-1.581-2.83-1.768-4.469q-1.241-10.876-2.173-21.775c-.195-2.36-.341-4.915.949-6.9,1.622-2.433,4.785-3.2,7.672-3.666a200.219,200.219,0,0,1,37.047-2.571c4.712-4.712,12.481-4.736,18.653-7.3a55.489,55.489,0,0,0,6.577-3.577,85.965,85.965,0,0,1,36.114-11.411,33.614,33.614,0,0,0,7.388-1.054c4.777-1.484,9.132-5.523,14.038-4.534.608-1.679,1.03-3.925,2.433-5.077.7-.592,1.557-.989,2.2-1.622,1.354-1.371,1.476-3.528,1.273-5.442s-.657-3.877-.162-5.742a7.94,7.94,0,0,1,.9-2C369.043,644.956,372.717,642.8,377.608,643.2Z" transform="translate(-109.337 -205.257)" fill="#464353"/>
      <path id="Right_Leg" data-name="Right Leg" d="M377.608,643.2c2.7-1.03,5.677-.657,8.572-.268,9.318,1.273,18.775,2.579,27.412,6.3a26.916,26.916,0,0,1,10.657,7.469c2.433,3.074,3.852,6.837,5.2,10.543l3.114,8.532a41.074,41.074,0,0,1,2.717,10c.973,10.211-6.01,19.837-14.793,25.141s-19.123,7.194-29.2,9.172-20.186,4.169-30.218,6.488a121.638,121.638,0,0,1-14.217,2.8c-10.738,1.217-21.962-.576-32.164,2.976-4.055,1.419-8.037,3.528-12.246,4.509a76.175,76.175,0,0,1-8.467,1.289l-19.31,2.206a105.35,105.35,0,0,1-11.841.908c-8.434,0-16.731-2-24.922-3.99a6.3,6.3,0,0,1-2.433-.981c-1.3-1.022-1.581-2.83-1.768-4.469q-1.241-10.876-2.173-21.775c-.195-2.36-.341-4.915.949-6.9,1.622-2.433,4.785-3.2,7.672-3.666a200.219,200.219,0,0,1,37.047-2.571c4.712-4.712,12.481-4.736,18.653-7.3a55.489,55.489,0,0,0,6.577-3.577,85.965,85.965,0,0,1,36.114-11.411,33.614,33.614,0,0,0,7.388-1.054c4.777-1.484,9.132-5.523,14.038-4.534.608-1.679,1.03-3.925,2.433-5.077.7-.592,1.557-.989,2.2-1.622,1.354-1.371,1.476-3.528,1.273-5.442s-.657-3.877-.162-5.742a7.94,7.94,0,0,1,.9-2C369.043,644.956,372.717,642.8,377.608,643.2Z" transform="translate(-109.337 -205.257)" opacity="0.05"/>
      <path id="Path_302" data-name="Path 302" d="M195.177,749.425c-5.02,5.815-9.44,7.891-17.3,7.7q-7.25-.17-14.484-.754a81.259,81.259,0,0,0-9.927-.462c-10.008.389-19.667,4.971-29.65,4.169a21.022,21.022,0,0,1-4.355-.811,12.676,12.676,0,0,1-5.912-3.585,16.154,16.154,0,0,1-3.358-7.875c-2.668-14.549,4.647-30.4,17.453-37.8a12.8,12.8,0,0,1,5.547-1.971,13.148,13.148,0,0,1,5.612,1.233l.122.049a42.44,42.44,0,0,1,13.9,9.278,7.835,7.835,0,0,0,2.125,1.711,7.3,7.3,0,0,0,2.506.47l10.657.673a25.248,25.248,0,0,1,5.353.738,42.543,42.543,0,0,1,5.628,2.433c5.734,2.563,12.092,3.244,18.288,4.233a2.733,2.733,0,0,1,1.622.649,2.538,2.538,0,0,1,.5,1.054A20.689,20.689,0,0,1,195.177,749.425Z" transform="translate(-86.324 -217.637)" fill="#3f3d56"/>
      <path id="Path_303" data-name="Path 303" d="M138.926,709.331a63.986,63.986,0,0,0-10.665,13.333,66.729,66.729,0,0,0-8.71,26.39,48.984,48.984,0,0,0-.089,10.227,12.675,12.675,0,0,1-5.912-3.585,16.154,16.154,0,0,1-3.358-7.875c-2.668-14.549,4.647-30.4,17.453-37.8a12.8,12.8,0,0,1,5.547-1.971,13.147,13.147,0,0,1,5.612,1.233Z" transform="translate(-86.324 -217.639)" opacity="0.1"/>
      <path id="Path_304" data-name="Path 304" d="M394.438,734.155c5.961-.162,12.652-.462,17.031,3.552,4.177,3.8,4.728,10.056,5,15.693l.316,6.545a13.074,13.074,0,0,1-.624,5.9c-1.427,3.244-5.344,4.809-8.921,4.623s-6.861-1.752-10.129-3.163a142.494,142.494,0,0,0-27.574-8.686q.462-6.788,1.541-13.511c.495-3.106.576-8.3,2.652-10.884,2.2-2.725,5.061-1.249,8.045-.746a64.591,64.591,0,0,0,12.66.673Z" transform="translate(-135.444 -222.284)" fill="#fbbebe"/>
      <path id="Left_Leg" data-name="Left Leg" d="M190.527,649.245c0,.811-1.273,0-1.387-.868-.892-6.561-6.1-11.97-12.165-14.6S164,631.013,157.43,631.638c-9.935.941-21.086,4.744-24.719,14.03-.86,2.173-1.249,4.525-2.3,6.61-1.168,2.287-3.074,4.112-4.339,6.334-2.182,3.844-2.271,8.556-1.484,12.9,2.117,11.6,10.048,21.516,19.659,28.385s20.843,10.973,32.043,14.671a555.692,555.692,0,0,0,90.832,21.694,87.294,87.294,0,0,1,14.825,3.057c4.282,1.435,8.288,3.585,12.473,5.271,9.732,3.909,20.2,5.3,30.575,6.675,1.768.227,3.8.389,5.1-.811,1.687-1.565,1.127-4.29.649-6.537a35.157,35.157,0,0,1,4.144-24.946c1.736-2.92,3.99-5.912,3.666-9.294-.389-3.941-4.315-6.731-8.224-7.364s-7.883.3-11.808.811a6.326,6.326,0,0,1-4.014-.4,8.021,8.021,0,0,1-1.573-1.395,17.785,17.785,0,0,0-20.713-2.9c-1.452.811-3.65-1-5.158-1.679L270,689.04c-19.594-8.864-39.285-17.769-60.014-23.381a12.6,12.6,0,0,1-4.623-1.922c-1.03-.811-1.768-1.914-2.717-2.814-2.068-1.955-4.947-2.733-7.429-4.12S189.959,652.026,190.527,649.245Z" transform="translate(-89.062 -203.138)" fill="#464353"/>
      <path id="Path_306" data-name="Path 306" d="M506.531,773.272c-2.725,5.053-8.013,8.2-13.69,9.5a27.17,27.17,0,0,1-4.331.616c-7.177.446-14.266-1.541-21.183-3.5l-9.391-2.644a29.644,29.644,0,0,0-4.947-1.1,33.953,33.953,0,0,0-6.845.235,121.316,121.316,0,0,1-33.251-1.492,5.862,5.862,0,0,1-2.571-.916,12.772,12.772,0,0,1-1.792-2.2c-2.555-3.074-5.3-4.866-2.279-8.921,1.744-2.352,4.98-3.528,6.334-6.229s.487-6.537-.316-9.326c-1.095-3.852-4.7-5.515-5.985-9.051-.965-2.668.657-5.766,3.1-7.218s5.458-1.565,8.272-1.192,5.572,1.168,8.4,1.387c8.321.665,16.828-3.625,24.817-1.208,1.76.535,3.422,1.387,5.207,1.857a17.316,17.316,0,0,0,10.405-.9c1.168-.438,2.311-.965,3.447-1.484a27.757,27.757,0,0,1,6.934-2.506c7.794-1.338,15.02,4.055,20.9,9.318a29.549,29.549,0,0,1,5.312,5.758,28.908,28.908,0,0,1,3.244,8.378C508.469,757.928,510.245,766.378,506.531,773.272Z" transform="translate(-142.132 -221.176)" fill="#3f3d56"/>
      <path id="Path_307" data-name="Path 307" d="M521.688,773.26c-2.725,5.053-8.013,8.2-13.69,9.5a26.51,26.51,0,0,0,2.879-13.917c-.487-7.713-3.877-14.979-8.2-21.386a75.749,75.749,0,0,0-9.035-11.005c-2.579-2.6-5.75-4.655-8.524-7.031a27.756,27.756,0,0,1,6.934-2.506c7.794-1.338,15.02,4.055,20.9,9.318a29.552,29.552,0,0,1,5.312,5.758,28.908,28.908,0,0,1,3.244,8.378C523.626,757.916,525.4,766.367,521.688,773.26Z" transform="translate(-157.289 -221.165)" opacity="0.1"/>
      <path id="Path_308" data-name="Path 308" d="M159.269,474.4a8.4,8.4,0,0,0-1.8,2.879,136.135,136.135,0,0,0-11.435,46.73,4.671,4.671,0,0,1-.527,2.263,9.9,9.9,0,0,1-1.192,1.29,4.477,4.477,0,0,0,.762,6.488c1.338-2.522,4.542-3.341,7.388-3.56,13.633-1.079,26.95,5.263,40.623,4.785-.965-3.333-2.352-6.537-3.139-9.91-3.479-14.979,5.2-31.288-.122-45.716-1.062-2.887-2.839-5.726-5.636-6.991a15.013,15.013,0,0,0-3.609-.957c-3.455-.624-10.332-3.293-13.673-2.222-1.233.4-1.719,1.557-2.741,2.255C162.618,472.734,160.558,473.1,159.269,474.4Z" transform="translate(-92.677 -172.502)" fill="#55a3ff"/>
      <rect id="Rectangle_71" data-name="Rectangle 71" width="180.853" height="115.162" rx="7.97" transform="translate(95.35 331.423)" fill="#3f3d56"/>
      <circle id="Ellipse_100" data-name="Ellipse 100" cx="4.866" cy="4.866" r="4.866" transform="translate(180.505 384.138)" fill="#fff"/>
      <path id="Path_309" data-name="Path 309" d="M221.487,297.244c-2.725,1.971-4.59,4.8-6.488,7.518-3.5,5.02-7.453,10.032-13.041,12.83-2.117,1.062-4.533,1.865-5.937,3.714a10.007,10.007,0,0,0-1.581,4.16,82.438,82.438,0,0,0-1.671,15.9,17.666,17.666,0,0,0,1.289,7.818c1.111,2.271,3.114,4.193,3.528,6.666.316,1.93-.4,3.852-.649,5.791s.187,4.233,1.979,5.158a11.994,11.994,0,0,0,3,.706c5.393,1.2,7.2,7.526,8.021,12.757,1.833-.105,2.66-2.206,3.041-3.917l5.62-24.987c.608-2.709,1.622-5.847,4.323-6.8,1.809-.624,3.787-.041,5.677.122,7.421.608,13.7-5.126,20.956-6.707a26.762,26.762,0,0,1,7.064-.47c5.726.284,12.384,2.636,13.6,7.98.2.868.324,1.906,1.135,2.336s1.663.065,2.514,0c3.633-.365,5.774,3.722,6.82,7.064l3.812,12.165c.568,1.841,1.525,4.006,3.52,4.242,1.841.227,3.406-1.517,3.682-3.244s-.324-3.52-.722-5.255c-1.792-7.988.949-16.163,2.62-24.168s1.971-17.2-3.633-23.365c-2.036-2.23-4.712-3.893-6.61-6.245-1.768-2.206-2.766-4.915-4.6-7.08-5.069-5.977-18.069-10.592-26.041-11.354C243.612,289.589,228.851,291.9,221.487,297.244Z" transform="translate(-102.035 -138.694)" fill="#3f3d56"/>
    </g>
    <g id="Group_23" data-name="Group 23" transform="translate(90.743 187.868)" opacity="0.1">
      <path id="Path_310" data-name="Path 310" d="M289.019,375.263c-2-.243-2.952-2.433-3.52-4.242q-1.906-6.091-3.812-12.165c-1.046-3.349-3.187-7.437-6.821-7.064-.852.089-1.768.422-2.514,0s-.933-1.468-1.135-2.336c-1.216-5.353-7.875-7.7-13.6-7.98a27.114,27.114,0,0,0-7.064.462c-7.258,1.622-13.536,7.3-20.956,6.707-1.914-.154-3.893-.738-5.677-.114-2.733.941-3.714,4.055-4.323,6.8l-5.62,24.979c-.381,1.719-1.208,3.82-3.041,3.917-.811-5.223-2.628-11.549-8.021-12.749a12.752,12.752,0,0,1-3-.706,3.52,3.52,0,0,1-1.565-1.744c-.146.754-.316,1.508-.414,2.263-.243,1.93.187,4.233,1.979,5.158a12,12,0,0,0,3,.706c5.393,1.2,7.2,7.526,8.021,12.757,1.833-.105,2.66-2.206,3.041-3.917l5.62-24.987c.608-2.709,1.622-5.847,4.323-6.8,1.809-.624,3.787-.041,5.677.122,7.421.608,13.7-5.126,20.956-6.707a26.762,26.762,0,0,1,7.064-.47c5.726.284,12.384,2.636,13.6,7.98.2.868.324,1.906,1.135,2.336s1.663.065,2.514,0c3.633-.365,5.774,3.723,6.82,7.064q1.9,6.091,3.812,12.165c.568,1.841,1.525,4.006,3.52,4.242,1.841.227,3.406-1.517,3.682-3.244a11.013,11.013,0,0,0-.487-4.306,3.349,3.349,0,0,1-3.2,1.873Z" transform="translate(-193.743 -336.213)"/>
      <path id="Path_311" data-name="Path 311" d="M197.6,361.422c-.414-2.474-2.433-4.4-3.528-6.666a13.341,13.341,0,0,1-1.2-4.866c0,.908-.081,1.817-.089,2.733a17.667,17.667,0,0,0,1.289,7.818c.9,1.841,2.384,3.463,3.13,5.336a12.214,12.214,0,0,0,.4-4.355Z" transform="translate(-192.78 -337.814)"/>
      <path id="Path_312" data-name="Path 312" d="M316.394,341.35c-1.476,7.072-3.779,14.274-3.066,21.362.462-5.231,1.987-10.494,3.066-15.685A41.362,41.362,0,0,0,317.335,335a49.592,49.592,0,0,1-.941,6.35Z" transform="translate(-215.538 -335)"/>
    </g>
    <g id="GitHub" transform="translate(242.798 99.477)" opacity="0.8">
      <line id="Line_5" data-name="Line 5" x2="506.924" transform="translate(24.865 136.11)" fill="none" stroke="#3f3d56" stroke-miterlimit="10" stroke-width="3"/>
      <path id="Path_313" data-name="Path 313" d="M466.46,383.553s24.241,3.366,11.687-22.643,34.062-21.086,34.062-21.086" transform="translate(-396.56 -247.451)" fill="none" stroke="#3f3d56" stroke-miterlimit="10" stroke-width="3"/>
      <path id="Path_314" data-name="Path 314" d="M665.53,393.8s24.241-3.358,11.686,22.651,34.062,21.086,34.062,21.086" transform="translate(-434.184 -257.695)" fill="none" stroke="#3f3d56" stroke-miterlimit="10" stroke-width="3"/>
      <path id="Path_315" data-name="Path 315" d="M941.5,393.8s-24.249-3.358-11.686,22.651-34.062,21.086-34.062,21.086" transform="translate(-477.696 -257.695)" fill="none" stroke="#3f3d56" stroke-miterlimit="10" stroke-width="3"/>
      <line id="Line_6" data-name="Line 6" x1="133.758" transform="translate(284.296 179.831)" fill="none" stroke="#3f3d56" stroke-miterlimit="10" stroke-width="3"/>
      <circle id="Ellipse_101" data-name="Ellipse 101" cx="14.801" cy="14.801" r="14.801" transform="translate(10.065 121.309)" fill="#55a3ff"/>
      <circle id="Ellipse_102" data-name="Ellipse 102" cx="14.801" cy="14.801" r="14.801" transform="translate(101.099 77.361)" fill="#3acc6c"/>
      <circle id="Ellipse_103" data-name="Ellipse 103" cx="14.801" cy="14.801" r="14.801" transform="translate(101.099 121.309)" fill="#55a3ff"/>
      <circle id="Ellipse_104" data-name="Ellipse 104" cx="14.801" cy="14.801" r="14.801" transform="translate(159.848 121.309)" fill="#55a3ff"/>
      <circle id="Ellipse_105" data-name="Ellipse 105" cx="14.801" cy="14.801" r="14.801" transform="translate(262.537 164.811)" fill="#ff6584"/>
      <circle id="Ellipse_106" data-name="Ellipse 106" cx="14.801" cy="14.801" r="14.801" transform="translate(340.133 164.811)" fill="#ff6584"/>
      <circle id="Ellipse_107" data-name="Ellipse 107" cx="14.801" cy="14.801" r="14.801" transform="translate(336.086 121.309)" fill="#55a3ff"/>
      <circle id="Ellipse_108" data-name="Ellipse 108" cx="14.801" cy="14.801" r="14.801" transform="translate(513.241 121.309)" fill="#55a3ff"/>
      <circle id="Ellipse_109" data-name="Ellipse 109" cx="14.801" cy="14.801" r="14.801" transform="translate(440.77 121.309)" fill="#55a3ff"/>
      <rect id="Rectangle_72" data-name="Rectangle 72" width="49.658" height="34.224" fill="#55a3ff"/>
      <rect id="Rectangle_73" data-name="Rectangle 73" width="49.658" height="34.224" transform="translate(91.254)" fill="#3acc6c"/>
      <rect id="Rectangle_74" data-name="Rectangle 74" width="49.658" height="34.224" transform="translate(252.302)" fill="#ff6584"/>
    </g>
    <g id="Group_26" data-name="Group 26" transform="translate(8.889 164.192)" opacity="0.1">
      <path id="Path_317" data-name="Path 317" d="M150.753,338.687s-21.475-49.69-52.415-26.9c0,0-6.537,1.9-6.488,8.678,0,0,2.547-1.184,4.16,4.112a24.413,24.413,0,0,0,2.433,5.361,12.165,12.165,0,0,0,5.88,5.069h0s12.465,10.721,37.306,4.777c0,0,6.812,1.452,7.972.673l-7.591-6.383s-4.469,5.758-10.454,6.034c0,0,10.405-5.6,9.367-7.031-.211-.292-4.177-3.2-4.177-3.2s-7.8,9.959-17.031,10.113c0,0,13.292-5.012,15.571-11.232l-6.245-4.055s-7.875,10.957-18.418,11.524c0,0,13.714-5.718,16.844-12.3l-6.675-3.139s-7.753,10.543-16.52,10.94c0,0,15.182-8.207,14.947-11.557,0,0-6.3-2.514-8.3-2.368,0,0-5.734,7.421-10.851,7.21,0,0,9.562-6.561,9.043-7.7,0,0-9.083-1.087-13.974.811,0,0,7.023-3.309,14.071-2.222,0,0-2.968-4-7.1-5.109,0,0,5.158-1.727,9.294,5.393,0,0,7.039,1.135,7.867,1.979,0,0-3.09-7.615-7.3-11.046,0,0,6.488,1.622,9.083,11.816l6.78,3.009s-3.552-10.283-7.072-13.617c0,0,6.383,2.66,8.718,14.517l6.164,3.885s-2.384-9.083-5.49-13.649c0,0,5.385,3.747,7.21,14.833l3.812,3.082s-1.857-6.6-2.563-8.451-.268-2.19-.268-2.19a23.235,23.235,0,0,1,4.452,11.905S150.291,339.1,150.753,338.687Z" transform="translate(-91.85 -305.806)" fill="#55a3ff"/>
    </g>
    <g id="Code" transform="translate(-218.997 282.998)">
      <rect id="Rectangle_81" data-name="Rectangle 81" width="50.941" height="12.264" transform="translate(600.888 72.118)" fill="#55a3ff"/>
      <rect id="Rectangle_82" data-name="Rectangle 82" width="17.924" height="12.264" transform="translate(810.313 72.118)" fill="#55a3ff"/>
      <rect id="Rectangle_83" data-name="Rectangle 83" width="17.924" height="12.264" transform="translate(846.16 72.118)" fill="#55a3ff"/>
      <rect id="Rectangle_84" data-name="Rectangle 84" width="121.693" height="12.264" transform="translate(669.753 72.118)" fill="#55a3ff"/>
      <rect id="Rectangle_85" data-name="Rectangle 85" width="50.941" height="12.264" transform="translate(536.74 151.36)" fill="#55a3ff"/>
      <rect id="Rectangle_86" data-name="Rectangle 86" width="17.924" height="12.264" transform="translate(746.164 151.36)" fill="#55a3ff"/>
      <rect id="Rectangle_87" data-name="Rectangle 87" width="17.924" height="12.264" transform="translate(782.012 151.36)" fill="#55a3ff"/>
      <rect id="Rectangle_88" data-name="Rectangle 88" width="121.693" height="12.264" transform="translate(605.605 151.36)" fill="#55a3ff"/>
      <rect id="Rectangle_89" data-name="Rectangle 89" width="50.941" height="12.264" transform="translate(747.108 99.475)" fill="#55a3ff"/>
      <rect id="Rectangle_90" data-name="Rectangle 90" width="50.941" height="12.264" transform="translate(815.973 99.475)" fill="#55a3ff"/>
      <rect id="Rectangle_91" data-name="Rectangle 91" width="17.924" height="12.264" transform="translate(884.837 99.475)" fill="#55a3ff"/>
      <rect id="Rectangle_92" data-name="Rectangle 92" width="17.924" height="12.264" transform="translate(572.587 99.475)" fill="#55a3ff"/>
      <rect id="Rectangle_93" data-name="Rectangle 93" width="121.693" height="12.264" transform="translate(608.435 99.475)" fill="#55a3ff"/>
      <rect id="Rectangle_94" data-name="Rectangle 94" width="50.941" height="12.264" transform="translate(641.452 125.889)" fill="#55a3ff"/>
      <rect id="Rectangle_95" data-name="Rectangle 95" width="50.941" height="12.264" transform="translate(572.587 125.889)" fill="#55a3ff"/>
      <rect id="Rectangle_96" data-name="Rectangle 96" width="17.924" height="12.264" transform="translate(884.837 125.889)" fill="#55a3ff"/>
      <rect id="Rectangle_97" data-name="Rectangle 97" width="17.924" height="12.264" transform="translate(848.99 125.889)" fill="#55a3ff"/>
      <rect id="Rectangle_98" data-name="Rectangle 98" width="121.693" height="12.264" transform="translate(709.374 125.889)" fill="#55a3ff"/>
    </g>
  </g>
</svg>
