<svg xmlns="http://www.w3.org/2000/svg" x="0px" y="0px"
width="64" height="64"
viewBox="0 0 172 172"
style=" fill:#000000;"><g fill="none" fill-rule="nonzero" stroke="none" stroke-width="1" stroke-linecap="butt" stroke-linejoin="miter" stroke-miterlimit="10" stroke-dasharray="" stroke-dashoffset="0" font-family="none" font-weight="none" font-size="none" text-anchor="none" style="mix-blend-mode: normal"><path d="M0,172v-172h172v172z" fill="none"></path><g id="Layer_1"><path d="M166.625,5.375v104.8125c0,7.39063 -6.04687,13.4375 -13.4375,13.4375h-134.375c-7.39062,0 -13.4375,-6.04687 -13.4375,-13.4375v-104.8125z" fill="#ffffff"></path><path d="M166.625,1.34375h-161.25c-2.28438,0 -4.03125,1.74687 -4.03125,4.03125v94.0625c0,2.28437 1.74687,4.03125 4.03125,4.03125c2.28437,0 4.03125,-1.74688 4.03125,-4.03125v-90.03125h153.1875v100.78125c0,5.24063 -4.16563,9.40625 -9.40625,9.40625h-107.5c-2.28438,0 -4.03125,1.74688 -4.03125,4.03125c0,2.28437 1.74687,4.03125 4.03125,4.03125h107.5c9.675,0 17.46875,-7.79375 17.46875,-17.46875v-104.8125c0,-2.28438 -1.74687,-4.03125 -4.03125,-4.03125z" fill="#444b54"></path><path d="M16.125,130.34375c-0.80625,0 -1.6125,-0.26875 -2.28437,-0.67187c-1.88125,-1.20937 -2.28437,-3.7625 -1.075,-5.64375l41.65625,-60.46875c0.67188,-0.94063 1.6125,-1.47812 2.6875,-1.74687c1.075,-0.13437 2.15,0.13437 3.09062,0.67188l35.60938,25.8l35.34063,-52.94375c1.20937,-1.88125 3.7625,-2.41875 5.64375,-1.075c1.88125,1.20937 2.41875,3.7625 1.075,5.64375l-37.625,56.4375c-0.67187,0.94063 -1.6125,1.47813 -2.6875,1.74688c-1.075,0.13437 -2.15,0 -3.09062,-0.67187l-35.74375,-25.93438l-39.2375,57.10938c-0.80625,1.075 -2.01562,1.74687 -3.35937,1.74687z" fill="#71c2ff"></path><path d="M5.375,126.3125c0,-5.9125 4.8375,-10.75 10.75,-10.75c5.9125,0 10.75,4.8375 10.75,10.75c0,5.9125 -4.8375,10.75 -10.75,10.75c-5.9125,0 -10.75,-4.8375 -10.75,-10.75" fill="#ffffff"></path><path d="M16.125,141.09375c-8.19687,0 -14.78125,-6.58437 -14.78125,-14.78125c0,-8.19687 6.58438,-14.78125 14.78125,-14.78125c8.19688,0 14.78125,6.58438 14.78125,14.78125c0,8.19688 -6.58437,14.78125 -14.78125,14.78125zM16.125,119.59375c-3.7625,0 -6.71875,2.95625 -6.71875,6.71875c0,3.7625 2.95625,6.71875 6.71875,6.71875c3.7625,0 6.71875,-2.95625 6.71875,-6.71875c0,-3.7625 -2.95625,-6.71875 -6.71875,-6.71875z" fill="#71c2ff"></path><circle cx="43" cy="49" transform="scale(1.34375,1.34375)" r="8" fill="#ffffff"></circle><path d="M57.78125,80.625c-8.19687,0 -14.78125,-6.58437 -14.78125,-14.78125c0,-8.19687 6.58438,-14.78125 14.78125,-14.78125c8.19688,0 14.78125,6.58438 14.78125,14.78125c0,8.19688 -6.58437,14.78125 -14.78125,14.78125zM57.78125,59.125c-3.7625,0 -6.71875,2.95625 -6.71875,6.71875c0,3.7625 2.95625,6.71875 6.71875,6.71875c3.7625,0 6.71875,-2.95625 6.71875,-6.71875c0,-3.7625 -2.95625,-6.71875 -6.71875,-6.71875z" fill="#71c2ff"></path><circle cx="72" cy="70" transform="scale(1.34375,1.34375)" r="8" fill="#ffffff"></circle><path d="M96.75,108.84375c-8.19687,0 -14.78125,-6.58438 -14.78125,-14.78125c0,-8.19687 6.58438,-14.78125 14.78125,-14.78125c8.19687,0 14.78125,6.58437 14.78125,14.78125c0,8.19687 -6.58438,14.78125 -14.78125,14.78125zM96.75,87.34375c-3.7625,0 -6.71875,2.95625 -6.71875,6.71875c0,3.7625 2.95625,6.71875 6.71875,6.71875c3.7625,0 6.71875,-2.95625 6.71875,-6.71875c0,-3.7625 -2.95625,-6.71875 -6.71875,-6.71875z" fill="#71c2ff"></path><circle cx="100" cy="28" transform="scale(1.34375,1.34375)" r="8" fill="#ffffff"></circle><path d="M134.375,52.40625c-8.19687,0 -14.78125,-6.58438 -14.78125,-14.78125c0,-8.19688 6.58438,-14.78125 14.78125,-14.78125c8.19688,0 14.78125,6.58437 14.78125,14.78125c0,8.19687 -6.58437,14.78125 -14.78125,14.78125zM134.375,30.90625c-3.7625,0 -6.71875,2.95625 -6.71875,6.71875c0,3.7625 2.95625,6.71875 6.71875,6.71875c3.7625,0 6.71875,-2.95625 6.71875,-6.71875c0,-3.7625 -2.95625,-6.71875 -6.71875,-6.71875z" fill="#71c2ff"></path><path d="M115.69688,163.80313l-26.875,-26.875c-1.6125,-1.6125 -4.16563,-1.6125 -5.64375,0l-26.875,26.875c-1.6125,1.6125 -1.6125,4.16563 0,5.64375c0.80625,0.80625 1.88125,1.20938 2.82188,1.20938c0.94063,0 2.01563,-0.40313 2.82187,-1.20938l20.02188,-20.02187v17.2c0,2.28438 1.74688,4.03125 4.03125,4.03125c2.28437,0 4.03125,-1.74687 4.03125,-4.03125v-17.2l20.02188,20.02187c0.80625,0.80625 1.88125,1.20938 2.82187,1.20938c0.94062,0 2.01563,-0.40313 2.82187,-1.20938c1.6125,-1.6125 1.6125,-4.03125 0,-5.64375z" fill="#444b54"></path></g></g></svg>